<?xml version="1.0" encoding="UTF-8" standalone="no"?>
<!DOCTYPE svg PUBLIC "-//W3C//DTD SVG 1.1//EN"
 "http://www.w3.org/Graphics/SVG/1.1/DTD/svg11.dtd">
<!-- Generated by graphviz version 2.43.20190912.0211 (20190912.0211)
 -->
<!-- Title: shift Pages: 1 -->
<svg width="860pt" height="396pt"
 viewBox="0.00 0.00 860.03 395.72" xmlns="http://www.w3.org/2000/svg" xmlns:xlink="http://www.w3.org/1999/xlink">
<g id="graph0" class="graph" transform="scale(1 1) rotate(0) translate(4 391.72)">
<title>shift</title>
<polygon fill="white" stroke="transparent" points="-4,4 -4,-391.72 856.03,-391.72 856.03,4 -4,4"/>
<text text-anchor="middle" x="426.02" y="-7.8" font-family="Times,serif" font-size="14.00">shift</text>
<!-- n2 -->
<g id="node1" class="node">
<title>n2</title>
<polygon fill="none" stroke="black" points="537.07,-307 480.09,-289 537.07,-271 594.04,-289 537.07,-307"/>
<text text-anchor="middle" x="537.07" y="-285.3" font-family="Times,serif" font-size="14.00">a_next</text>
</g>
<!-- n3 -->
<g id="node2" class="node">
<title>n3</title>
<polygon fill="none" stroke="black" points="151.76,-247 101.99,-229 151.76,-211 201.53,-229 151.76,-247"/>
<text text-anchor="middle" x="151.76" y="-225.3" font-family="Times,serif" font-size="14.00">a_reg</text>
</g>
<!-- x0 -->
<g id="node10" class="node">
<title>x0</title>
<path fill="none" stroke="black" d="M303.24,-124C303.24,-124 378.24,-124 378.24,-124 384.24,-124 390.24,-130 390.24,-136 390.24,-136 390.24,-158 390.24,-158 390.24,-164 384.24,-170 378.24,-170 378.24,-170 303.24,-170 303.24,-170 297.24,-170 291.24,-164 291.24,-158 291.24,-158 291.24,-136 291.24,-136 291.24,-130 297.24,-124 303.24,-124"/>
<text text-anchor="middle" x="340.74" y="-154.8" font-family="Times,serif" font-size="14.00">3:0 &#45; 15:12</text>
<polyline fill="none" stroke="black" points="291.24,-147 390.24,-147 "/>
<text text-anchor="middle" x="340.74" y="-131.8" font-family="Times,serif" font-size="14.00">15:4 &#45; 11:0</text>
</g>
<!-- n3&#45;&gt;x0 -->
<g id="edge5" class="edge">
<title>n3:e&#45;&gt;x0:w</title>
<path fill="none" stroke="#e6ab02" stroke-width="3" d="M201.4,-229C226.66,-229 220.23,-203.54 237.4,-185 256.69,-164.16 257.64,-141.15 279.73,-136.04"/>
<polygon fill="#e6ab02" stroke="#e6ab02" stroke-width="3" points="280.15,-139.52 289.74,-135 279.43,-132.55 280.15,-139.52"/>
</g>
<!-- x2 -->
<g id="node11" class="node">
<title>x2</title>
<path fill="none" stroke="black" d="M303.24,-266C303.24,-266 378.24,-266 378.24,-266 384.24,-266 390.24,-272 390.24,-278 390.24,-278 390.24,-300 390.24,-300 390.24,-306 384.24,-312 378.24,-312 378.24,-312 303.24,-312 303.24,-312 297.24,-312 291.24,-306 291.24,-300 291.24,-300 291.24,-278 291.24,-278 291.24,-272 297.24,-266 303.24,-266"/>
<text text-anchor="middle" x="340.74" y="-296.8" font-family="Times,serif" font-size="14.00">3:0 &#45; 15:12</text>
<polyline fill="none" stroke="black" points="291.24,-289 390.24,-289 "/>
<text text-anchor="middle" x="340.74" y="-273.8" font-family="Times,serif" font-size="14.00">15:4 &#45; 11:0</text>
</g>
<!-- n3&#45;&gt;x2 -->
<g id="edge6" class="edge">
<title>n3:e&#45;&gt;x2:w</title>
<path fill="none" stroke="#e6ab02" stroke-width="3" d="M201.4,-229C220.15,-229 220.98,-241.93 237.4,-251 256.76,-261.7 262.26,-273.03 279.51,-276.16"/>
<polygon fill="#e6ab02" stroke="#e6ab02" stroke-width="3" points="279.48,-279.67 289.74,-277 280.06,-272.69 279.48,-279.67"/>
</g>
<!-- x3 -->
<g id="node12" class="node">
<title>x3</title>
<path fill="none" stroke="black" d="M655.05,-230C655.05,-230 715.05,-230 715.05,-230 721.05,-230 727.05,-236 727.05,-242 727.05,-242 727.05,-254 727.05,-254 727.05,-260 721.05,-266 715.05,-266 715.05,-266 655.05,-266 655.05,-266 649.05,-266 643.05,-260 643.05,-254 643.05,-254 643.05,-242 643.05,-242 643.05,-236 649.05,-230 655.05,-230"/>
<text text-anchor="middle" x="685.05" y="-244.3" font-family="Times,serif" font-size="14.00">3:0 &#45; 3:0</text>
</g>
<!-- n3&#45;&gt;x3 -->
<g id="edge7" class="edge">
<title>n3:e&#45;&gt;x3:w</title>
<path fill="none" stroke="#e6ab02" stroke-width="3" d="M201.4,-229C393.98,-229 444.27,-247.34 631.85,-247.98"/>
<polygon fill="#e6ab02" stroke="#e6ab02" stroke-width="3" points="632.05,-251.48 642.05,-248 632.06,-244.48 632.05,-251.48"/>
</g>
<!-- n4 -->
<g id="node3" class="node">
<title>n4</title>
<polygon fill="none" stroke="black" points="60.44,-333.54 60.44,-348.46 44.4,-359 21.73,-359 5.69,-348.46 5.69,-333.54 21.73,-323 44.4,-323 60.44,-333.54"/>
<text text-anchor="middle" x="33.06" y="-337.3" font-family="Times,serif" font-size="14.00">clk</text>
</g>
<!-- c11 -->
<g id="node7" class="node">
<title>c11</title>
<polygon fill="none" stroke="black" points="630.05,-165 630.05,-211 740.05,-211 740.05,-165 630.05,-165"/>
<text text-anchor="middle" x="649.55" y="-195.8" font-family="Times,serif" font-size="14.00">CLK</text>
<polyline fill="none" stroke="black" points="630.05,-188 669.05,-188 "/>
<text text-anchor="middle" x="649.55" y="-172.8" font-family="Times,serif" font-size="14.00">D</text>
<polyline fill="none" stroke="black" points="669.05,-165 669.05,-211 "/>
<text text-anchor="middle" x="692.55" y="-191.8" font-family="Times,serif" font-size="14.00">10</text>
<text text-anchor="middle" x="692.55" y="-176.8" font-family="Times,serif" font-size="14.00">$dff</text>
<polyline fill="none" stroke="black" points="716.05,-165 716.05,-211 "/>
<text text-anchor="middle" x="728.05" y="-184.3" font-family="Times,serif" font-size="14.00">Q</text>
</g>
<!-- n4&#45;&gt;c11 -->
<g id="edge8" class="edge">
<title>n4:e&#45;&gt;c11:w</title>
<path fill="none" stroke="#66a61e" d="M61.06,-341C298.21,-341 406.48,-461.09 594.05,-316 633.58,-285.42 584.51,-212.04 619.84,-201.32"/>
<polygon fill="#66a61e" stroke="#66a61e" points="620.58,-204.75 630.05,-200 619.69,-197.81 620.58,-204.75"/>
</g>
<!-- n5 -->
<g id="node4" class="node">
<title>n5</title>
<polygon fill="none" stroke="black" points="66.19,-215.54 66.19,-230.46 46.79,-241 19.34,-241 -0.06,-230.46 -0.06,-215.54 19.34,-205 46.79,-205 66.19,-215.54"/>
<text text-anchor="middle" x="33.06" y="-219.3" font-family="Times,serif" font-size="14.00">d_in</text>
</g>
<!-- n5&#45;&gt;x0 -->
<g id="edge9" class="edge">
<title>n5:e&#45;&gt;x0:w</title>
<path fill="none" stroke="#d95f02" stroke-width="3" d="M66.13,-223C84.65,-223 84.9,-208.81 102.13,-202 178.41,-171.82 202.25,-159.98 279.52,-159.06"/>
<polygon fill="#d95f02" stroke="#d95f02" stroke-width="3" points="279.76,-162.56 289.74,-159 279.72,-155.56 279.76,-162.56"/>
</g>
<!-- n5&#45;&gt;x2 -->
<g id="edge10" class="edge">
<title>n5:e&#45;&gt;x2:w</title>
<path fill="none" stroke="#d95f02" stroke-width="3" d="M66.13,-223C87.83,-223 82.96,-245.81 102.13,-256 174.73,-294.6 201.76,-300.55 279.48,-300.97"/>
<polygon fill="#d95f02" stroke="#d95f02" stroke-width="3" points="279.73,-304.47 289.74,-301 279.75,-297.47 279.73,-304.47"/>
</g>
<!-- n6 -->
<g id="node5" class="node">
<title>n6</title>
<polygon fill="none" stroke="black" points="852.02,-240.54 852.02,-255.46 829.77,-266 798.31,-266 776.07,-255.46 776.07,-240.54 798.31,-230 829.77,-230 852.02,-240.54"/>
<text text-anchor="middle" x="814.04" y="-244.3" font-family="Times,serif" font-size="14.00">d_out</text>
</g>
<!-- n7 -->
<g id="node6" class="node">
<title>n7</title>
<polygon fill="none" stroke="black" points="60.44,-33.54 60.44,-48.46 44.4,-59 21.73,-59 5.69,-48.46 5.69,-33.54 21.73,-23 44.4,-23 60.44,-33.54"/>
<text text-anchor="middle" x="33.06" y="-37.3" font-family="Times,serif" font-size="14.00">rst</text>
</g>
<!-- c16 -->
<g id="node9" class="node">
<title>c16</title>
<polygon fill="none" stroke="black" points="489.57,-71.5 489.57,-140.5 584.57,-140.5 584.57,-71.5 489.57,-71.5"/>
<text text-anchor="middle" x="501.57" y="-125.3" font-family="Times,serif" font-size="14.00">A</text>
<polyline fill="none" stroke="black" points="489.57,-117.5 513.57,-117.5 "/>
<text text-anchor="middle" x="501.57" y="-102.3" font-family="Times,serif" font-size="14.00">B</text>
<polyline fill="none" stroke="black" points="489.57,-94.5 513.57,-94.5 "/>
<text text-anchor="middle" x="501.57" y="-79.3" font-family="Times,serif" font-size="14.00">S</text>
<polyline fill="none" stroke="black" points="513.57,-71.5 513.57,-140.5 "/>
<text text-anchor="middle" x="537.07" y="-109.8" font-family="Times,serif" font-size="14.00">6</text>
<text text-anchor="middle" x="537.07" y="-94.8" font-family="Times,serif" font-size="14.00">$mux</text>
<polyline fill="none" stroke="black" points="560.57,-71.5 560.57,-140.5 "/>
<text text-anchor="middle" x="572.57" y="-102.3" font-family="Times,serif" font-size="14.00">Y</text>
</g>
<!-- n7&#45;&gt;c16 -->
<g id="edge12" class="edge">
<title>n7:e&#45;&gt;c16:w</title>
<path fill="none" stroke="#7570b3" d="M61.06,-41C231.5,-41 279.62,-15.25 444.08,-60 461.54,-64.75 465.11,-77.18 478.01,-81.5"/>
<polygon fill="#7570b3" stroke="#7570b3" points="477.66,-84.99 488.07,-83 478.69,-78.06 477.66,-84.99"/>
</g>
<!-- c11&#45;&gt;n3 -->
<g id="edge4" class="edge">
<title>c11:e&#45;&gt;n3:w</title>
<path fill="none" stroke="#e6ab02" stroke-width="3" d="M741.05,-188C751.51,-188 747.5,-204.16 740.05,-211.5 730.11,-221.31 250.83,-222.16 237.4,-226 219.59,-231.09 219.28,-242.17 201.4,-247 190.71,-249.89 109.8,-254.61 101.76,-247 99.4,-244.76 97.47,-241.37 96.55,-238.14"/>
<polygon fill="#e6ab02" stroke="#e6ab02" stroke-width="3" points="99.75,-239.55 100.76,-229 93.39,-236.61 99.75,-239.55"/>
</g>
<!-- v1 -->
<g id="node8" class="node">
<title>v1</title>
<ellipse fill="none" stroke="black" cx="340.74" cy="-87" rx="103.18" ry="18"/>
<text text-anchor="middle" x="340.74" y="-83.3" font-family="Times,serif" font-size="14.00">16&#39;0000000000000000</text>
</g>
<!-- v1&#45;&gt;c16 -->
<g id="edge13" class="edge">
<title>v1:e&#45;&gt;c16:w</title>
<path fill="none" stroke="#1b9e77" stroke-width="3" d="M444.08,-87C461.38,-87 465.55,-99.54 477.92,-104.25"/>
<polygon fill="#1b9e77" stroke="#1b9e77" stroke-width="3" points="477.62,-107.75 488.07,-106 478.81,-100.85 477.62,-107.75"/>
</g>
<!-- c16&#45;&gt;c11 -->
<g id="edge2" class="edge">
<title>c16:e&#45;&gt;c11:w</title>
<path fill="none" stroke="#e7298a" stroke-width="3" d="M586.07,-106C618.79,-106 598.97,-161.52 620.2,-173.67"/>
<polygon fill="#e7298a" stroke="#e7298a" stroke-width="3" points="619.52,-177.11 630.05,-176 621.13,-170.29 619.52,-177.11"/>
</g>
<!-- x0&#45;&gt;c16 -->
<g id="edge1" class="edge">
<title>x0:e&#45;&gt;c16:w</title>
<path fill="none" stroke="#e7298a" stroke-width="3" d="M404.02,-146.48C433.72,-143.86 446.07,-132.14 475.76,-129.52"/>
<polygon fill="none" stroke="#e7298a" stroke-width="3" points="403.73,-146.49 397.9,-150.74 391.74,-147 397.56,-142.75 403.73,-146.49"/>
<polygon fill="none" stroke="#e7298a" stroke-width="3" points="476.08,-129.51 481.9,-125.26 488.07,-129 482.24,-133.25 476.08,-129.51"/>
</g>
<!-- x2&#45;&gt;n2 -->
<g id="edge3" class="edge">
<title>x2:e&#45;&gt;n2:w</title>
<path fill="none" stroke="#7570b3" stroke-width="3" d="M391.74,-289C427.32,-289 438.72,-289 469.76,-289"/>
<polygon fill="#7570b3" stroke="#7570b3" stroke-width="3" points="470.08,-292.5 480.08,-289 470.08,-285.5 470.08,-292.5"/>
</g>
<!-- x3&#45;&gt;n6 -->
<g id="edge11" class="edge">
<title>x3:e&#45;&gt;n6:w</title>
<path fill="none" stroke="#666666" stroke-width="3" d="M728.05,-248C745.55,-248 752.29,-248 765.92,-248"/>
<polygon fill="#666666" stroke="#666666" stroke-width="3" points="766.05,-251.5 776.05,-248 766.05,-244.5 766.05,-251.5"/>
</g>
</g>
</svg>
